<?xml version="1.0" encoding="utf-8"?>
<!-- Generator: Adobe Illustrator 18.1.0, SVG Export Plug-In . SVG Version: 6.00 Build 0)  -->
<!DOCTYPE svg PUBLIC "-//W3C//DTD SVG 1.1//EN" "http://www.w3.org/Graphics/SVG/1.1/DTD/svg11.dtd">
<svg version="1.1" id="Layer_1" xmlns="http://www.w3.org/2000/svg" xmlns:xlink="http://www.w3.org/1999/xlink" x="0px" y="0px"
	 viewBox="56.5 214.5 463.1 147" enable-background="new 56.5 214.5 463.1 147" xml:space="preserve">
<g>
	<polygon fill="#F1F2F2" points="75,276.1 75,233.8 108,255.2 	"/>
	<polygon fill="#F1F2F2" points="87.2,268.2 75,275.9 75,300.8 87.2,300.8 87.2,268.4 87.2,268.3 	"/>
	<path fill="#414142" d="M107.9,255.2L107.9,255.2L107.9,255.2z"/>
	<path fill="#414142" d="M108,255.2L108,255.2L108,255.2z"/>
	<polygon fill="#F1F2F2" points="108,255.2 108,269.7 128.9,256.6 129.3,300.8 142,300.8 142,233.8 	"/>
	<g>
		<g>
			<defs>
				<polygon id="SVGID_1_" points="75,276 107.9,255.1 75,233.8 				"/>
			</defs>
			<clipPath id="SVGID_2_">
				<use xlink:href="#SVGID_1_"  overflow="visible"/>
			</clipPath>
			<polygon clip-path="url(#SVGID_2_)" fill="#F05325" points="87.2,268.2 70.6,259.8 70.6,278.8 			"/>
		</g>
	</g>
	<polygon fill="#3F3F3D" points="108,255.2 87.2,268.2 87.2,282.7 108,269.7 	"/>
	<g>
		<path fill="#F1F2F2" d="M204.1,271.2l14.4-23.8h5.4v39.7h-7.7V265l-9.5,15.6h-5.3L192,265v22.1h-7.7v-39.7h5.4L204.1,271.2z"/>
		<path fill="#F1F2F2" d="M256.6,246.9c12.2,0,20.7,9.1,20.7,20.4s-8.5,20.4-20.7,20.4c-12.2,0-20.7-9.1-20.7-20.4
			S244.3,246.9,256.6,246.9z M256.6,280.9c7.5,0,13-6.1,13-13.6s-5.6-13.6-13-13.6c-7.5,0-13,6.1-13,13.6S249.1,280.9,256.6,280.9z"
			/>
		<path fill="#F1F2F2" d="M301.6,247.5c6.3,0,10.4,1.4,13.6,3.8c4.9,3.6,7.9,9.5,7.9,16.1s-3,12.5-7.9,16.1
			c-3.2,2.4-7.4,3.8-13.6,3.8h-12.5v-39.7L301.6,247.5L301.6,247.5z M312.6,258.7c-2.2-2.8-5.5-4.4-10.2-4.4h-5.6v26.1h5.6
			c4.7,0,8-1.6,10.2-4.4c1.8-2.3,2.9-5.3,2.9-8.6C315.5,264,314.4,261,312.6,258.7z"/>
		<path fill="#F1F2F2" d="M340.2,283.6c-3.3-3-5.1-7.2-5.1-13.2v-23h7.7V271c0,3.6,0.9,5.8,2.6,7.4c1.7,1.6,4.1,2.5,6.7,2.5
			c2.7,0,5-0.9,6.7-2.5c1.6-1.6,2.6-3.8,2.6-7.4v-23.5h7.7v23c0,6.1-1.8,10.3-5.1,13.2c-3.1,2.7-7.4,4.1-11.9,4.1
			C347.6,287.7,343.2,286.4,340.2,283.6z"/>
		<path fill="#F1F2F2" d="M383.6,247.5h7.7v32.9H408v6.8h-24.4V247.5z"/>
		<path fill="#F1F2F2" d="M422.7,283.6c-3.3-3-5.1-7.2-5.1-13.2v-23h7.7V271c0,3.6,1,5.8,2.6,7.4c1.7,1.6,4.1,2.5,6.7,2.5
			c2.7,0,5-0.9,6.7-2.5c1.6-1.6,2.6-3.8,2.6-7.4v-23.5h7.7v23c0,6.1-1.8,10.3-5.1,13.2c-3.1,2.7-7.4,4.1-11.9,4.1
			C430.1,287.7,425.7,286.4,422.7,283.6z"/>
		<path fill="#F1F2F2" d="M467.1,276.6c2.3,2.5,5.7,4.4,9.4,4.4c3.4,0,5.8-2.1,5.8-5c0-5.1-7.4-5.7-12.7-8.8c-3.1-1.8-5.6-4.5-5.6-9
			c0-7.1,6.5-11.2,13.1-11.2c4,0,7.8,1,11.5,3.8l-4,5.6c-1.6-1.5-4.2-2.6-6.9-2.6c-2.9,0-6.1,1.3-6.1,4.3c0,6.4,18.3,4.4,18.3,17.8
			c0,7-6.3,11.9-13.5,11.9c-5.3,0-10.3-2.2-14.4-5.9L467.1,276.6z"/>
	</g>
	<rect x="154.6" y="216.5" fill="#F1F2F2" width="8" height="98.6"/>
	<rect x="511.5" y="214.5" fill="#F1F2F2" width="8" height="105.6"/>
	<rect x="56.5" y="214.5" fill="#F1F2F2" width="8" height="105.6"/>
	<rect x="56.5" y="214.5" fill="#F1F2F2" width="462.7" height="8"/>
	<rect x="60.5" y="312.1" fill="#F1F2F2" width="458.8" height="8"/>
	<path fill="#F05325" d="M67.2,332v10.4h11.4v2.6H67.2v13.8h15.2v2.6H64.5v-32.1h17.4v2.6L67.2,332L67.2,332z"/>
	<path fill="#F05325" d="M127.1,361.5l11.3-17.6l-9.3-14.4h3.1l8,12.4l8-12.4h3.1l-9.3,14.5l11.3,17.6H150l-9.9-15.5l-9.9,15.5
		L127.1,361.5L127.1,361.5z"/>
	<path fill="#F05325" d="M217.4,329.4l13.8,32.1h-2.7l-4.2-9.6h-15.6l-4.2,9.6h-2.7l13.8-32.1H217.4z M209.8,349.2h13.3l-6.6-15.5
		L209.8,349.2z"/>
	<path fill="#F05325" d="M291.3,355.1h-1.8l-11.3-19v25.4h-2.7v-32.1h1.8l13.2,22l13.1-22h1.8v32.1h-2.7v-25.4L291.3,355.1z"/>
	<path fill="#F05325" d="M356.6,346v15.5h-2.7v-32h11.9c2.9,0,4.8,0.8,6.3,1.9c1.8,1.5,2.9,3.8,2.9,6.4c0,2.6-1.1,4.8-2.9,6.4
		c-1.4,1.2-3.3,1.9-6.3,1.9L356.6,346L356.6,346z M365.6,343.4c2.5,0,3.9-0.7,4.9-1.7c1-1,1.6-2.4,1.6-4c0-1.6-0.7-3-1.6-4
		c-1-1-2.5-1.7-4.9-1.7h-9v11.4H365.6z"/>
	<path fill="#F05325" d="M426.5,358.9h15.1v2.6h-17.9v-32.1h2.7L426.5,358.9L426.5,358.9z"/>
	<path fill="#F05325" d="M496.4,332v10.4h11.4v2.6h-11.4v13.8h15.1v2.6h-17.9v-32.1h17.4v2.6L496.4,332L496.4,332z"/>
</g>
</svg>
