<?xml version="1.0" encoding="utf-8"?>
<!-- Generator: Adobe Illustrator 18.0.0, SVG Export Plug-In . SVG Version: 6.00 Build 0)  -->
<!DOCTYPE svg PUBLIC "-//W3C//DTD SVG 1.1//EN" "http://www.w3.org/Graphics/SVG/1.1/DTD/svg11.dtd">
<svg version="1.1" id="Layer_1" xmlns="http://www.w3.org/2000/svg" xmlns:xlink="http://www.w3.org/1999/xlink" x="0px" y="0px"
	 viewBox="0 0 1280 795.1" enable-background="new 0 0 1280 795.1" xml:space="preserve">
<g>
	<defs>
		<rect id="SVGID_1_" x="0" width="1280" height="1031.6"/>
	</defs>
	<clipPath id="SVGID_2_">
		<use xlink:href="#SVGID_1_"  overflow="visible"/>
	</clipPath>
	<g opacity="0.1" clip-path="url(#SVGID_2_)">
		<rect x="-1" y="-2" fill="#414142" width="1224" height="792"/>
		<polygon fill="#333333" points="298.1,661.2 221,527.7 298.1,394.2 452.3,394.2 529.3,527.7 452.3,661.2 		"/>
		<polygon fill="#595A5C" points="606.6,122.7 646.5,191.8 686.4,260.9 606.6,260.9 526.9,260.9 566.7,191.8 		"/>
		<polygon fill="#323031" points="529.8,527.9 452.8,394.4 529.8,260.9 684,260.9 761.3,392.7 684,527.9 		"/>
		<polygon fill="#414142" points="683.3,794.6 606.2,661.1 683.3,527.6 837.4,527.6 914.5,661.1 837.4,794.6 		"/>
		<polygon fill="#323031" points="67.3,260.8 -9.8,127.3 67.3,-6.2 221.4,-6.2 298.5,127.3 221.4,260.8 		"/>
		<polygon fill="#323031" points="994.6,260.6 916,124.5 992,-6.1 1149.1,-6.1 1230.3,124.5 1151.7,260.6 		"/>
		<polygon fill="#595A5C" points="298.2,394.2 452.7,394.1 298.3,127.2 221.4,260.8 		"/>
		<polygon fill="#595A5C" points="375.2,794.6 452.2,661.1 143.9,661.1 221,794.6 		"/>
		<polygon fill="#323031" points="143.9,660.8 298.1,661.1 144,394.3 67.1,527.2 		"/>
		<polygon fill="#414142" points="452.5,127.1 298.3,127.2 452.7,394.1 529.6,260.5 		"/>
		<polygon fill="#323031" points="842.2,-6.3 684,-6.4 837.8,261.6 917.3,123.5 		"/>
		<polygon fill="#595A5C" points="529.5,-6.5 375.3,-6.4 529.7,260.5 606.7,126.9 		"/>
		<polygon fill="#4E4E4E" points="528.7,795.1 374.2,795 528.9,527.4 606.1,661.3 		"/>
		<polygon fill="#414142" points="-86.2,259.1 68,259.2 -86.4,526.1 -163.4,392.5 		"/>
		<polygon fill="#414142" points="606.2,661.1 567.7,594.4 529.2,527.7 606.2,527.7 683.2,527.7 644.7,594.4 		"/>
		<polygon fill="#636467" points="606.7,127 568.2,60.3 529.7,-6.4 606.7,-6.4 684,-6.4 645.2,60.3 		"/>
		<polygon fill="#595A5C" points="917,122.8 842.2,-6.3 991.7,-6.2 		"/>
		<polygon fill="#414142" points="298.5,127 260,60.3 221.4,-6.4 298.5,-6.4 375.5,-6.4 337,60.3 		"/>
		<polygon fill="#595A5C" points="-8.5,127 -47,60.3 -85.6,-6.4 -8.5,-6.4 68.5,-6.4 30,60.3 		"/>
		<polygon fill="#595A5C" points="221.4,260.8 182.9,327.5 144,394.3 182.5,461 221,527.8 259.5,461 298.2,394.2 		"/>
		<polygon fill="#595A5C" points="1229.2,658.8 1305.4,794.6 1149.3,794.6 		"/>
		<polygon fill="#595A5C" points="-8.8,658.8 67.4,794.6 -88.7,794.6 		"/>
		<polygon fill="#595A5C" points="-9.6,127.4 67.7,260.8 -88.4,260.8 		"/>
		<polygon fill="#414142" points="837.3,260.7 875.9,327.5 914.4,394.2 837.3,394.2 760.3,394.2 798.8,327.5 		"/>
		<polygon fill="#595A5C" points="917,122.7 956.8,191.7 996.7,260.7 917,260.7 837.3,260.7 877.2,191.7 		"/>
		<polygon fill="#323031" points="606.2,661.1 644.7,727.8 683.2,794.6 606.2,794.6 529.2,794.6 567.7,727.8 		"/>
		<polygon fill="#414142" points="1074.1,394.3 1112.6,461 1151.1,527.8 1074.1,527.8 997,527.8 1035.6,461 		"/>
		<polygon fill="#636467" points="375.3,-6.4 452.4,127.2 298.3,127.2 		"/>
		<polygon fill="#414142" points="1306,527.8 1151.1,794.8 1073.8,661.4 1228.7,394.4 		"/>
		<polygon fill="#636467" points="1309.2,258.6 1151.1,527.4 1073.7,394 1230,123.9 		"/>
		<polygon fill="#414142" points="838.9,260.4 684,-6.4 606.7,126.9 760.4,394.2 		"/>
		<polygon fill="#595A5C" points="997.5,527.7 683.4,528 760.4,394.2 1074.5,393.9 		"/>
		<polygon fill="#595A5C" points="1230,123.9 1525.4,123.1 1451.3,-5.8 1148.9,-6.1 		"/>
		<polygon fill="#636467" points="67.5,260.5 -86.7,526.9 67.1,527.2 221.4,260.8 		"/>
		<polygon fill="#414142" points="67.5,793.8 -86.7,526.9 67.1,527.2 221,794.6 		"/>
		<polygon fill="#595A5C" points="1074.1,661.2 1151.2,527.7 837.3,527.6 914.3,661.1 		"/>
		<polygon fill="#636467" points="1074,394.1 1151.2,260.6 837.3,260.5 914.3,394 		"/>
		<polygon fill="#323031" points="914.4,661 837.3,794.5 1151.1,794.6 1074.1,661.1 		"/>
		<rect x="-1" y="-2" fill="none" width="1224" height="792"/>
	</g>
</g>
</svg>
